<svg width="600" height="600" viewBox="0 0 600 600" fill="none" xmlns="http://www.w3.org/2000/svg">
<path fill-rule="evenodd" clip-rule="evenodd" d="M400.871 279.295H408.371V284.045H400.871V279.295ZM390.371 279.295H397.871V284.045H390.371V279.295ZM379.872 279.295H387.372V284.045H379.872V279.295ZM369.372 279.295H376.872V284.045H369.372V279.295ZM358.873 279.295H366.373V284.045H358.873V279.295ZM348.623 279.295H355.873V284.045H348.623V279.295ZM338.124 279.295H345.373V284.045H338.124V279.295ZM327.624 279.295H335.124V284.045H327.624V279.295ZM317.124 279.295H324.624V284.045H317.124V279.295ZM306.625 279.295H314.124V284.045H306.625V279.295ZM296.125 279.295H303.625V284.045H296.125V279.295ZM285.875 279.295H293.125V284.045H285.875V279.295ZM275.376 279.295H282.625V284.045H275.376V279.295ZM264.876 279.295H272.126V284.045H264.876V279.295ZM254.377 279.295H261.876V284.045H254.377V279.295ZM243.877 279.295H251.377V284.045H243.877V279.295ZM233.377 279.295H240.877V284.045H233.377V279.295ZM222.878 279.295H230.378V284.045H222.878V279.295ZM212.628 279.295H219.878V284.045H212.628V279.295ZM202.129 279.295H209.379V284.045H202.129V279.295ZM191.629 279.295H199.129V284.045H191.629V279.295ZM298.625 220.297C309.215 220.297 318.911 221.742 328.41 225.511C329.357 225.887 330.382 226.189 331.293 226.628C337.626 229.684 343.797 232.782 349.303 237.366C353.001 240.445 354.115 241.424 357.811 245.108L361.561 249.357C362.053 249.88 362.015 249.96 362.442 250.477L365.119 254.049C365.46 254.536 365.59 254.619 365.978 255.19C369.262 260.019 372.91 267.136 374.908 272.76C375.184 273.537 375.796 275.128 375.872 276.046H223.878C223.983 274.78 225.382 271.499 225.909 270.076L234.558 254.227L239.812 247.481C240.562 246.646 241.222 246.194 241.877 245.297C243.215 243.464 244.972 242.285 246.07 241.24C246.46 240.87 246.669 240.617 247.061 240.23L262.707 229.378C269.075 226.017 276.74 223.446 283.726 221.898C287.699 221.018 294.461 220.297 298.625 220.297ZM413.371 263.046C414.622 263.708 415.629 264.518 416.951 265.215C427.801 270.939 434.317 268.362 435.527 269.12L438.687 271.728C439.834 272.603 440.96 273.203 442.165 273.999C442.792 274.414 443.234 274.602 443.954 274.961C444.383 275.174 444.539 275.24 444.96 275.455L445.869 276.046H416.621C416.583 274.351 415.557 271.044 415.171 269.496C414.862 268.258 414.622 267.552 414.277 266.389C413.946 265.276 413.504 264.088 413.371 263.046ZM183.129 276.046L154.401 275.816C154.444 275.788 154.648 275.66 154.71 275.625C157.353 274.122 163.174 270.97 164.63 268.796C168.91 269.793 174.782 268.521 178.915 267.081C179.722 266.8 180.036 266.576 180.791 266.207C181.229 265.994 181.426 265.948 181.84 265.757L186.379 263.046C186.288 264.145 185.785 265.057 185.48 266.147C184.857 268.373 183.168 274.329 183.129 276.046ZM431.37 256.796C431.37 254.319 431.638 253.763 433.113 251.789C434.739 249.611 437.763 249.413 440.203 250.463C446.77 253.288 447.037 261.517 439.59 264.516C438.181 265.083 437.352 265.546 435.87 265.546L433.119 261.797C432.252 260.508 431.37 258.931 431.37 256.796ZM163.63 265.546C158.608 265.128 150.496 258.86 157.068 252.234C159.617 249.663 164.248 248.599 166.928 251.998C170.277 256.246 167.874 260.353 165.34 263.756C164.735 264.568 164.464 264.987 163.63 265.546ZM404.121 241.797C404.121 241.441 405.774 240.606 406.204 240.379C406.754 240.09 406.838 240.039 407.314 239.74C407.937 239.347 407.787 239.366 408.621 239.297L414.02 250.397L418.62 262.546C417.353 262.208 411.828 258.405 411.153 257.014C410.086 254.816 408.79 251.139 407.121 247.796L404.121 241.797ZM181.38 262.546C181.557 260.412 186.104 249.518 187.71 246.127L189.125 243.292C189.441 242.671 189.619 242.506 189.965 241.882C190.511 240.897 190.885 239.981 191.379 239.047C192.173 239.578 194.992 241.34 195.879 241.547C194.023 245.053 191.574 249.693 190.053 253.47C189.493 254.86 189.049 256.948 187.982 257.899C185.95 259.709 183.784 261.273 181.38 262.546ZM385.372 216.798L388.811 213.237C389.856 213.957 390.56 214.868 391.433 215.736C394.053 218.34 398.482 224.111 400.662 227.007C402.664 229.668 404.079 232.132 405.872 234.796C406.31 235.448 406.494 235.836 406.871 236.547L402.371 239.047C400.992 236.441 396.503 229.998 394.521 227.398L385.372 216.798ZM197.379 239.047L192.879 236.547L205.814 218.733C207.006 217.311 209.546 214.19 210.878 213.298L214.439 216.737C213.745 217.743 212.834 218.331 212.128 219.297L209.813 221.982C209.046 222.892 208.316 223.579 207.583 224.502L199.277 235.945C198.558 237.027 198.057 238.034 197.379 239.047ZM218.628 276.046H216.878C217.246 271.622 223.456 258.769 226.428 254.346L237.187 240.356L253.206 227.127C254.237 226.527 254.992 226.075 256.024 225.444C256.627 225.076 256.789 224.966 257.462 224.633C259.977 223.389 262.297 221.861 264.91 220.831C270.446 218.649 275.827 216.638 281.933 215.355C296.873 212.215 314.337 212.992 328.591 218.33C329.64 218.723 330.663 219.147 331.841 219.58C340.158 222.645 347.522 227.593 354.521 232.898C357.628 235.253 361.163 238.67 363.688 241.481L367.803 246.366C370.554 249.671 372.974 253.374 375.037 257.131L376.622 260.046C378.683 264.172 380.505 268.32 381.966 272.701C382.332 273.799 382.691 275.147 383.122 276.046H381.122C380.84 274.836 380.503 273.818 380.155 272.763L376.288 263.38C374.812 260.44 373.406 257.575 371.572 254.846L364.168 244.751C363.799 244.28 363.463 244.062 363.057 243.612C361.49 241.873 359.475 239.416 357.668 238.001C357.083 237.543 357.002 237.564 356.432 236.987C355.999 236.548 355.791 236.284 355.272 235.897C354.591 235.39 354.641 235.408 354.066 234.854C352.196 233.054 349.859 231.699 347.805 230.115C345.742 228.524 343.364 227.337 341.128 226.043L330.45 220.971C326.353 219.304 321.471 217.922 316.688 216.984C301.195 213.946 284.165 215.169 269.477 220.898L263.375 223.546C260.481 224.846 257.696 226.493 254.977 228.148C253.989 228.75 253.249 229.3 252.277 229.947L242.439 237.858C242.063 238.234 241.831 238.513 241.443 238.862L231.982 249.401C231.275 250.351 230.774 251.095 230.085 252.004C227.443 255.488 224.651 260.648 222.958 264.626C222.694 265.246 222.492 265.496 222.229 266.147L219.722 272.64C219.324 273.832 218.896 274.894 218.628 276.046ZM213.628 276.046H186.129C186.223 275.849 189.111 264.148 190.301 261.218C190.964 259.585 191.502 258.097 192.129 256.546C193.704 252.653 196.209 246.873 198.329 243.497L200.729 239.397C203.708 234.506 207.118 229.837 210.813 225.481C211.22 225.001 211.109 224.982 211.563 224.482L222.693 213.113C223.15 212.729 223.108 212.867 223.563 212.483L231.587 206.008C232.845 205.056 233.919 204.354 235.278 203.448L243.177 198.598C246.717 196.379 252.387 193.913 256.377 192.299C262.388 189.866 269.059 187.684 276.107 186.28C298.816 181.756 321.877 183.688 343.228 192.193C348.416 194.26 353.541 196.766 358.368 199.553L368.019 205.902C370.872 207.833 374.509 210.523 376.935 212.985C377.665 213.726 377.862 213.871 378.667 214.502C380.926 216.27 383.016 218.824 385.062 220.857L390.167 226.752C397.299 235.74 403.36 245.635 407.585 256.332C408.188 257.859 408.843 259.326 409.339 260.828C409.897 262.517 410.382 263.967 410.966 265.701C411.639 267.7 413.435 273.811 413.621 276.046H386.121C385.921 273.639 383.538 268 382.659 265.759C382.385 265.062 382.266 264.87 381.953 264.215C380.465 261.103 379.031 257.807 377.271 254.897C374.582 250.45 371.152 245.101 367.566 241.353L358.188 231.982C354.479 228.647 350.157 225.863 345.922 223.248C342.003 220.827 337.971 218.793 333.45 216.971C332.258 216.491 331.351 216.211 330.157 215.765C321.465 212.517 311.903 210.548 302.625 210.548L288.473 211.145C283.252 212.028 278.23 212.871 273.343 214.515C272.096 214.934 271.079 215.274 269.782 215.703C266.277 216.864 263.174 218.275 259.961 219.882L253.975 223.146C249.822 225.668 243.858 229.723 240.561 232.981L234.684 238.603C230.068 243.456 224.992 250.422 221.792 256.211C221.472 256.791 221.376 257.124 221.027 257.695C220.662 258.292 220.543 258.46 220.212 259.13L217.293 265.461C216.728 266.675 216.467 267.613 215.956 268.874C215.11 270.962 214.149 273.811 213.628 276.046ZM363.373 193.048C368.66 195.847 374.322 200.331 379.077 204.093C379.463 204.398 379.378 204.251 379.806 204.614L386.872 210.798L383.182 214.608L376.811 208.859C376.234 208.318 376.01 208.278 375.433 207.737C372.782 205.247 363.8 199.098 360.873 197.548C361.691 196.001 362.554 194.596 363.373 193.048ZM216.628 214.548L213.068 211.108C214.522 208.997 222.07 203.003 224.171 201.341L227.024 199.195C228.158 198.427 229.046 197.77 230.128 197.048C231.085 196.41 235.537 193.34 236.627 193.048L238.33 196.345C238.687 196.909 238.702 196.797 238.877 197.548C235.598 199.283 233.111 201.216 230.131 203.301C229.121 204.007 228.27 204.605 227.229 205.399L216.628 214.548ZM333.624 180.299C339.336 181.63 354.009 187.384 358.922 190.499C359.573 190.911 359.794 191.106 360.623 191.299C360.492 192.866 358.71 194.602 358.373 196.048C351.921 192.635 346.667 189.839 339.468 187.455C337.654 186.854 334.149 185.446 332.374 185.299C332.395 184.341 333.305 180.962 333.624 180.299ZM241.377 195.798C241.012 194.43 239.498 192.889 239.127 191.299L260.574 181.996C261.163 181.834 261.759 181.632 262.471 181.393C263.49 181.051 265.361 180.384 266.376 180.299C266.448 181.161 267.325 184.422 267.626 185.049L257.341 188.513C254.185 189.631 250.628 191.3 247.627 192.798C246.626 193.299 245.628 193.798 244.627 194.298C243.784 194.719 242.148 195.734 241.377 195.798ZM329.374 184.299C328.341 184.276 327.475 183.951 326.474 183.699C325.356 183.417 324.507 183.252 323.393 183.03C316.17 181.59 309.179 180.799 301.375 180.799V175.549C303.337 176.006 305.14 175.709 307.134 175.79L316.654 176.77C319.239 177.12 321.255 177.442 323.773 177.9L330.624 179.299C330.497 180.825 329.725 182.792 329.374 184.299ZM269.126 179.299L283.096 176.77C285.474 176.446 287.954 176.09 290.635 176.059C291.953 176.043 291.644 175.793 294.375 175.799C296.044 175.803 297.02 175.865 298.375 175.549V180.799C284.961 180.799 271.484 184.274 270.376 184.299C270.361 183.597 269.364 179.795 269.126 179.299ZM167.38 266.046C169.472 262.922 171.63 260.574 171.63 256.296C171.63 249.031 163.512 243.167 155.169 249.835C154.137 250.659 153.467 251.614 152.88 252.796C152.187 254.193 151.631 255.865 151.631 257.796C151.631 260.345 153.289 263.238 154.774 264.402C157.971 266.905 157.554 266.45 160.88 268.046C160.318 268.813 158 270.282 156.983 270.898C152.412 273.67 147.978 275.838 142.124 276.289C140.147 276.441 137.994 276.614 136.029 276.943C133.577 277.354 119.697 278.474 118.471 278.884C117.774 279.116 118.045 279.154 117.882 279.295H188.629V284.045H183.129V287.045H416.87V284.045H411.371V279.295H482.118C481.287 278.573 477.465 278.388 476.362 278.302C474.386 278.148 472.227 277.979 470.267 277.646L457.87 276.294C454.068 276.077 450.723 274.652 447.334 273.33C445.725 272.703 444.412 271.812 442.951 270.964C442.146 270.497 441.531 270.115 440.827 269.588C440.063 269.015 439.365 268.714 439.12 267.796C442.573 267.508 448.119 262.347 448.119 258.546C448.119 253.922 447.048 251.288 443.226 248.69C440.678 246.958 436.744 246.236 433.867 247.544C433.365 247.772 432.876 247.98 432.431 248.357L430.185 250.611C429.781 251.102 429.638 251.506 429.37 252.046C428.495 253.803 428.37 255.164 428.37 257.296C428.37 260.875 430.9 263.85 432.37 266.046C428.791 266.046 426.415 265.568 423.211 264.706C421.79 264.323 422.174 264.124 421.769 262.647C420.32 257.351 418.079 252.235 415.951 247.216C414.597 244.025 412.805 241.023 411.202 237.966L401.431 222.987C400.068 221.409 399.01 219.608 397.564 218.105L393.309 213.36C390.802 210.884 390.775 210.241 387.186 207.233L383.564 203.855C377.689 198.201 364.514 189.873 357.038 186.133C352.323 183.775 347.25 181.446 342.156 179.766L336.838 178.085C331.485 176.404 325.201 174.955 319.563 174.111C313.023 173.13 306.489 172.549 299.875 172.549C297.31 172.549 295.718 172.812 293.124 172.798C286.395 172.761 275.215 174.83 268.574 176.497L257.778 179.701C254.414 180.852 250.764 182.225 247.625 183.797C242.894 186.165 238.258 188.402 233.73 191.151C229.787 193.545 225.859 196.036 222.308 198.978L203.194 217.113C202.857 217.484 202.642 217.61 202.333 218.002L196.983 224.902C195.925 226.324 195.052 227.538 194.079 228.997C193.574 229.756 193.169 230.335 192.675 231.093L190.576 234.494C190.323 234.894 190.177 235.196 189.928 235.596L187.384 240.051C183.742 246.285 180.303 255.345 178.094 262.511C177.735 263.676 178.025 264.254 176.739 264.655L173.984 265.4C171.579 265.951 170.258 266.046 167.38 266.046Z" fill="#D3A54B"/>
<path fill-rule="evenodd" clip-rule="evenodd" d="M301.375 424.54V419.29C304.218 419.29 306.235 419.089 308.884 419.05L326.021 416.437C327.019 416.205 328.448 415.81 329.374 415.79C329.725 417.297 330.497 419.263 330.624 420.79L323.77 422.186C321.278 422.687 319.317 422.947 316.687 423.352C314.258 423.726 311.918 423.834 309.124 424.039C307.41 424.165 308.405 424.298 305.375 424.289C303.637 424.285 302.845 424.54 301.375 424.54ZM270.376 415.79C271.317 415.811 280.641 418.005 283.635 418.28C284.695 418.378 285.92 418.452 287.024 418.641C289.535 419.071 296.029 419.29 298.375 419.29V424.54L283.063 423.352C280.452 422.946 278.476 422.688 275.98 422.186C274.695 421.928 273.94 421.739 272.684 421.482C271.584 421.257 270.517 420.79 269.126 420.79C269.394 420.232 270.358 416.606 270.376 415.79ZM333.624 419.79C333.305 419.126 332.395 415.748 332.374 414.79C333.168 414.724 333.565 414.514 334.152 414.319C345.71 410.49 347.845 409.611 358.372 404.04C358.71 405.486 360.492 407.223 360.623 408.79C359.987 408.96 358.221 409.966 357.454 410.371C353.241 412.594 348.926 414.726 344.409 416.326C343.253 416.735 342.125 417.171 340.906 417.573C339.778 417.945 338.467 418.379 337.341 418.757C336.419 419.067 334.592 419.709 333.624 419.79ZM241.377 404.29C242.645 404.396 243.036 405.001 244.461 405.707L250.546 408.621C254.108 410.31 256.834 411.259 260.477 412.689L267.626 414.79C267.438 415.599 267.279 416.299 267.026 417.189C266.767 418.095 266.457 418.816 266.376 419.79C265.508 419.77 265.241 419.626 264.533 419.383L259.028 417.638C253.947 415.899 245.282 412.137 240.792 409.626C240.062 409.217 240.005 408.995 239.127 408.79C239.505 407.169 241.015 405.647 241.377 404.29ZM363.373 407.04C362.554 405.493 361.691 404.088 360.873 402.54C364.33 400.711 369.283 397.091 372.517 394.686C372.99 394.335 373.38 394.073 373.802 393.721L383.122 385.541L386.682 388.981L374.332 399.75C371.065 402.191 366.795 405.23 363.373 407.04ZM213.128 389.041L216.568 385.481L229.837 396.581L238.877 402.54C238.671 403.427 236.909 406.246 236.377 407.04C232.769 405.131 227.512 401.249 224.168 398.75L218.563 394.106C217.965 393.602 217.797 393.595 217.187 392.981C215.553 391.335 214.132 390.54 213.128 389.041ZM175.88 378.541C175.88 376.033 177.949 374.185 179.887 373.049C182.099 371.753 182.002 371.256 184.45 374.471C185.244 375.512 185.819 376.652 186.12 378.057C187.599 384.977 175.88 384.705 175.88 378.541ZM418.37 383.291C413.823 383.291 412.115 379.354 415.168 374.839C416.286 373.186 417.263 372.325 417.62 371.792C420.736 373.44 427.009 377.04 422.561 381.482C421.454 382.589 420.347 383.291 418.37 383.291ZM198.129 371.292C199.387 371.32 202.114 372.596 203.214 373.206L206.424 375.246C208.68 377.037 208.964 377.516 210.94 379.48L214.378 383.291L210.939 386.851C210.173 386.319 209.693 385.747 209.062 385.108L204.944 380.476C203.762 379.076 198.461 372.535 198.129 371.292ZM388.872 386.791L385.311 383.351L392.552 375.972C394.977 373.958 398.615 371.858 402.121 371.042L397.552 377.222C396.958 377.934 396.381 378.601 395.872 379.292C395.315 380.046 394.902 380.342 394.271 381.191C393.674 381.992 389.792 386.174 388.872 386.791ZM198.129 371.292H197.879L198.087 371L198.129 371.292ZM396.871 369.542V369.792L396.58 369.583L396.871 369.542ZM202.879 369.542H203.129L202.92 369.833L202.879 369.542ZM396.871 369.542C397.317 368.699 397.55 368.526 398.073 367.744C401.826 362.138 402.99 360.209 406.121 354.292L423.87 358.292C426.739 359.009 429.541 359.725 432.338 360.574C433.71 360.99 435.159 361.356 436.591 361.821C437.476 362.108 439.862 363.042 440.87 363.042V363.292C437.4 363.292 435.614 362.607 430.766 363.438C426.813 364.116 425.865 364.155 422.015 365.687L418.535 367.456C417.879 367.844 417.913 367.929 417.37 368.292C415.712 368.255 414.095 367.409 412.368 367.294C406.994 366.938 404.752 366.816 399.273 368.694C398.272 369.037 397.903 369.301 396.871 369.542ZM202.879 369.542C202.043 369.347 201.382 368.934 200.521 368.649C195.195 366.884 191.623 366.678 186.128 367.54C182.652 368.086 183.673 369.057 181.084 367.338C175.993 363.958 168.59 363.074 162.379 363.041C160.851 363.032 160.39 363.292 159.13 363.292L167.412 360.574C172.964 358.889 178.96 357.545 184.777 356.189L193.879 354.292C194.235 355.822 195.237 357.007 195.883 358.288C197.297 361.093 199.836 364.841 201.629 367.542C202.328 368.596 202.673 368.771 202.879 369.542ZM196.879 353.792C197.899 353.77 199.283 353.436 200.316 353.229L218.024 350.439C219.336 350.22 220.281 350.171 221.601 350.016C222.64 349.893 224.215 349.542 225.378 349.542C227.187 352.245 229.122 355.194 231.312 357.607C231.65 357.979 231.865 358.104 232.173 358.497L234.693 361.227C235.139 361.723 235.042 361.749 235.443 362.227C235.723 362.562 235.996 362.786 236.316 363.104L239.939 366.481C243.393 369.974 249.852 374.426 253.977 376.941C263.269 382.605 273.815 386.601 284.625 388.291C285.651 388.452 286.6 388.625 287.625 388.791C288.582 388.946 289.674 389.006 290.726 389.19C296.389 390.181 310.551 389.248 315.145 388.311C317.096 387.914 319.156 387.464 320.932 387.099C323.064 386.66 324.621 386.072 326.422 385.59C335.363 383.198 344.846 378.226 352.083 372.751L360.807 365.727C361.142 365.446 361.367 365.173 361.684 364.854C362.907 363.623 363.968 362.595 365.189 361.359C365.88 360.658 366.066 360.212 366.81 359.48L369.272 356.692C369.594 356.268 369.704 356.11 370.017 355.687C370.585 354.918 370.979 354.483 371.554 353.724C372.393 352.615 374.021 350.859 374.372 349.542C375.695 349.542 376.881 349.833 377.93 349.984L395.843 352.57C398.012 352.923 400.642 353.743 402.871 353.792C401.972 357.651 390.646 373.232 387.315 376.735C386.824 377.252 386.42 377.581 385.928 378.098L376.938 387.107C373.242 390.768 363.52 397.369 358.975 400.143C349.308 406.044 338.748 410.113 327.724 412.89L319.065 414.731C306.994 416.553 293.023 416.763 280.94 414.726C269.973 412.877 259.482 409.33 249.376 404.791C248.41 404.357 246.987 403.662 246.077 403.09C245.469 402.708 245.155 402.549 244.461 402.207C238.315 399.18 232.68 395.059 227.335 390.834L223.128 387.291C222.551 386.87 222.346 386.64 221.816 386.103L211.562 375.608C210.972 375.012 210.961 374.803 210.441 374.228C209.895 373.624 209.699 373.328 209.189 372.731L200.629 360.542C200.21 359.923 200.114 359.686 199.713 358.957C199.317 358.235 199.115 358.017 198.715 357.206L196.879 353.792ZM228.628 349.042C229.711 349.042 229.857 349.162 230.628 348.793C230.899 349.198 230.966 349.215 231.277 349.643L234.832 354.338C235.365 355.016 235.844 355.311 236.377 356.042C238.177 358.507 243.527 363.311 246.307 365.612C249.287 368.077 250.822 369.133 253.831 371.088L262.211 375.957C263.761 376.732 265.076 377.264 266.706 377.962C268.285 378.639 269.651 379.275 271.298 379.869L276.227 381.44C293.985 386.489 310.897 385.755 328.282 379.949L341.79 373.709C342.315 373.433 342.286 373.409 342.724 373.143C345.128 371.681 347.321 370.423 349.692 368.611L354.186 365.105C356.841 362.704 357.127 362.661 360.184 359.604C362.267 357.521 363.641 355.653 364.808 354.478L367.691 350.861C368.249 350.128 368.641 349.511 369.122 348.793C370.004 348.998 369.944 349.042 371.122 349.042C370.225 350.739 368.278 353.025 367.022 354.692C365.321 356.948 360.886 361.436 358.939 363.358L354.623 367.042C351.915 369.046 351.223 369.809 347.723 372.142C347.002 372.622 346.506 372.994 345.772 373.441L339.373 377.041C334.321 379.566 328.038 382.19 322.426 383.593C313.118 385.921 307.987 386.541 297.875 386.541C292.824 386.541 285.034 385.483 280.322 384.345C277.82 383.741 272.352 382.201 270.125 381.292C262.959 378.368 265.155 379.357 258.631 376.037C257.858 375.644 257.088 375.335 256.323 374.845L244.582 366.587L237.687 360.233C235.496 358.056 230.444 351.755 228.628 349.042ZM236.377 348.293L239.822 347.987C242.374 347.6 243.686 347.682 245.107 347.522C245.854 347.439 245.78 347.298 246.87 347.286C250.107 347.249 258.658 346.276 261.373 346.289C264.59 346.305 269.428 345.792 272.626 345.793L283.879 345.546C285.464 345.553 285.956 345.282 287.624 345.291C300.928 345.364 325.379 345.041 335.893 346.273L356.128 347.537C357.22 347.576 356.918 347.722 357.875 347.79C358.719 347.85 358.911 347.799 359.723 347.942L363.373 348.293C362.13 350.64 355.309 357.744 353.077 359.497L349.166 362.835C348.804 363.121 348.848 363.025 348.443 363.362L342.423 367.592C341.15 368.448 339.935 369.04 338.628 369.796C338.011 370.154 337.58 370.443 336.874 370.792C333.185 372.618 330.854 373.843 326.78 375.197C325.196 375.724 323.872 376.241 322.274 376.691C307.771 380.781 292.208 380.982 277.718 376.699C276.071 376.213 274.788 375.801 273.343 375.324L265.207 371.961C261.851 370.371 259.074 368.561 255.977 366.691C253.045 364.922 249.615 361.744 247.627 360.292L244.582 357.588C242.827 356.214 240.703 353.347 239.066 351.604L236.377 348.293ZM477.868 375.791C476.857 374.913 474.82 374.231 473.537 373.622C472.704 373.227 472.117 373.019 471.287 372.623L455.404 365.507C452.281 364.276 449.201 362.858 445.902 361.759C435.792 358.393 425.341 355.162 414.853 353.06C412.947 352.677 411.227 352.357 409.268 351.895C407.42 351.459 405.526 351.2 403.808 350.855C393.484 348.787 379.802 346.813 369.113 345.802L350.873 344.042C348.967 343.899 346.499 344.019 344.679 343.737L312.875 342.293C307.545 342.293 286.783 342.014 283.125 342.292L270.369 342.786C268.966 342.788 268.786 343.048 267.383 343.05C264.877 343.054 263.369 343.301 260.873 343.289C259.406 343.283 259.153 343.535 257.886 343.552C254.89 343.593 242.16 344.476 239.526 344.942L224.379 346.544C221.497 346.711 218.638 347.224 215.777 347.692L201.229 349.893C192.278 351.528 182.609 353.184 173.981 355.643L163.594 358.506C158.564 360.075 153.635 361.689 148.735 363.646C142.479 366.146 136.497 369.042 130.38 371.791L121.517 375.927C121.488 375.949 121.427 376.003 121.382 376.041C122.716 375.93 129.76 373.542 131.539 372.949C139.742 370.218 147.891 367.217 156.624 366.535C159.805 366.287 161.805 365.979 165.14 366.032C167.238 366.065 171.129 366.658 172.982 367.19L177.972 368.949C178.915 369.391 178.89 369.146 179.129 370.042C177.24 370.546 174.531 373.472 173.582 375.244C172.1 378.01 172.91 381.335 174.936 383.485C177.771 386.493 182.261 387.037 185.715 385.127C187.206 384.304 188.49 382.94 189.026 381.188C190.403 376.694 187.463 373.903 185.379 370.792C187.738 370.595 190.161 369.69 192.587 370.083C193.458 370.224 193.754 370.449 194.237 371.184L201.059 380.361C205.127 385.277 209.427 389.942 214.194 394.225L219.938 399.23C220.437 399.657 220.822 399.946 221.338 400.331L226.024 403.894C230.885 407.208 235.765 410.492 241.041 413.127L246.629 415.788C250.326 417.639 254.372 418.904 258.205 420.462C259.684 421.063 260.815 421.32 262.348 421.818C281.68 428.097 307.892 429.469 328.774 424.19C330.294 423.806 331.452 423.52 332.974 423.14C334.651 422.721 335.653 422.391 337.273 421.939C342.684 420.428 347.713 418.114 352.793 415.96C356.588 414.35 360.029 412.568 363.52 410.437C364.75 409.686 365.745 409.139 366.975 408.393C370.284 406.386 373.364 404.195 376.441 401.859L379.553 399.472C380.105 399.057 380.438 398.816 380.933 398.352C383.321 396.109 385.758 394.278 388.183 391.853C391.315 388.721 394.468 385.591 397.306 382.226C397.665 381.801 397.524 381.879 397.826 381.496C400.446 378.185 403.167 374.968 405.469 371.39C405.91 370.705 406.03 370.329 406.952 370.123C408.894 369.689 412.474 370.35 414.37 370.792C413.363 372.296 412.352 373.541 411.532 375.203C408.551 381.237 413.451 387.878 420.377 386.048C427.678 384.119 429.622 376.514 422.939 371.473C422.137 370.868 421.633 370.278 420.62 370.042V369.542C421.511 369.334 421.32 369.251 421.988 368.91C425.245 367.248 428.964 366.547 432.619 366.291C433.551 366.226 433.439 366.051 434.61 366.032C447.838 365.82 458.786 369.832 470.897 373.763C472.902 374.414 475.79 375.619 477.868 375.791Z" fill="#D3A54B"/>
<path fill-rule="evenodd" clip-rule="evenodd" d="M298.625 271.045H301.375V271.295H298.625V271.045ZM300.125 270.046C297.602 270.046 295.82 269.903 293.366 269.804C292.525 269.771 291.007 269.478 290.31 269.361C289.15 269.166 288.326 268.875 287.375 268.796C287.446 267.942 287.337 268.023 288.066 267.736C290.23 266.883 290.706 267.707 292.592 268.328C302.578 271.62 309.24 267.338 310.116 267.32C311.084 267.301 312.346 267.757 312.875 268.546C310.501 269.685 303.833 270.046 300.125 270.046ZM316.624 267.546H316.374L316.583 267.254L316.624 267.546ZM316.624 267.546C317.488 267.777 317.394 267.681 317.624 268.546C315.863 270.95 304.884 271.045 301.625 271.045V270.795C304.023 270.795 306.379 270.808 308.57 270.491C310.483 270.215 313.196 269.932 314.124 268.546L313.748 268.173C313.683 268.122 313.319 267.885 313.297 267.873C313.132 267.784 312.99 267.747 312.774 267.646L312.277 267.393C312.244 267.375 312.174 267.33 312.124 267.296C313.552 267.328 314.529 267.656 315.124 268.546C314.842 268.931 315 268.772 314.621 269.042C314.564 269.083 314.362 269.186 314.304 269.225C313.9 269.498 314.128 269.325 313.874 269.546C315.399 269.512 316.019 268.869 316.874 268.296C316.699 267.634 316.894 268.09 316.624 267.546ZM283.376 267.546V267.296L283.667 267.504L283.376 267.546ZM312.124 267.296H311.124V267.046C311.264 267.046 311.533 267.041 311.608 267.063C312.05 267.19 311.885 267.144 312.124 267.296ZM283.376 267.546V268.546C284.053 268.904 284.444 269.218 285.375 269.296L284.876 268.046C285.901 267.772 284.872 268.019 285.752 267.672L288.875 267.046L286.125 268.046C286.148 269.075 285.903 268.866 286.604 269.317C287.747 270.049 291.342 270.484 292.881 270.54C293.973 270.579 293.669 270.723 294.625 270.796C295.729 270.88 297.227 270.795 298.375 270.795V271.045C296.881 271.045 295.353 271.079 293.865 271.056C292.694 271.037 292.807 270.862 291.875 270.795C291.059 270.737 290.572 270.84 289.725 270.696C287.874 270.381 285.798 270.16 284.084 269.588C283.122 269.266 283.221 269.022 282.376 268.796C282.46 267.776 282.504 267.778 283.376 267.546ZM310.624 266.796L310.699 266.87C310.694 266.866 310.6 266.821 310.624 266.796ZM321.624 252.796C321.624 247.402 326.663 247.433 328.57 249.1C330.197 250.522 330.411 253.57 328.658 255.33C326.338 257.659 321.624 255.977 321.624 252.796ZM287.876 266.046C286.509 266.364 280.126 267.667 280.126 268.796C280.126 272.345 299.703 272.388 304.885 272.305L316.68 270.852C321.825 269.617 320.027 267.661 316.35 267.07L312.124 266.046L312.666 265.587C317.191 261.885 317.485 260.533 320.124 255.546C320.995 256.184 320.622 256.533 322.266 257.654C326.323 260.419 332.374 258.047 332.374 251.796C332.374 248.631 328.316 243.653 322.374 246.796V245.047C322.335 245.091 322.277 245.104 322.261 245.183L320.832 246.504C320.204 246.874 319.326 247.189 318.532 247.454C316.789 248.036 315.395 248.423 313.562 248.734C304.906 250.204 295.31 250.159 286.653 248.769C284.586 248.437 281.16 247.568 279.379 246.543C279.256 246.473 278.608 246.08 278.458 245.965C277.964 245.584 277.876 245.585 277.876 244.797H277.626C277.626 250.182 280.101 257.148 282.87 261.052L285.687 264.234C287.048 265.61 286.785 265.098 287.876 266.046Z" fill="#D3A54B"/>
<path fill-rule="evenodd" clip-rule="evenodd" d="M293.375 245.796C294.928 244.756 296.375 242.398 296.375 239.797C297.782 239.469 298.901 239.547 300.625 239.547C300.625 242.994 300.547 243.922 299.125 246.046C299.937 245.83 300.918 244.435 301.434 243.606C302.149 242.456 302.375 241.359 302.375 239.547L306.625 239.797C306.625 240.965 306.764 242.361 306.479 243.401C306.373 243.788 306.191 244.333 306.031 244.703C305.649 245.588 305.612 245.158 305.375 246.046C307.121 244.877 308.374 242.467 308.374 240.297C310.247 240.297 312.55 240.801 313.913 241.258C317.667 242.514 319.72 244.563 314.407 246.33C311.859 247.177 307.806 247.946 305.134 248.055C304.24 248.092 303.259 248.001 302.366 248.038C301.254 248.083 301.177 248.332 299.872 248.314C298.656 248.296 298.739 248.083 297.634 248.038L292.382 247.79C290.209 247.623 285.336 246.583 283.666 245.506C278.087 241.908 291.689 240.202 293.075 239.979C294.2 239.799 295.472 239.267 294.227 243.648C293.939 244.659 293.602 244.823 293.375 245.796ZM294.375 238.797C291.213 238.797 287.798 239.377 285.325 239.997C270.055 243.824 283.322 249.296 298.875 249.296C304.461 249.296 307.264 249.125 312.597 248.269C314.771 247.92 321.374 246.285 321.374 244.297C321.374 241.938 318.808 241.045 315.878 240.293C313.637 239.718 311.17 239.047 308.374 239.047C308.374 234.452 303.833 228.802 305.875 224.547C302.109 225.553 304.236 231.763 304.842 233.579C305.257 234.824 306.346 237.512 306.375 238.797C304.765 238.797 304.123 238.547 302.375 238.547C302.24 236.927 301.408 234.592 300.875 233.297C298.901 228.499 299.323 228.177 299.625 224.547C295.52 227.296 298.713 232.568 299.625 236.046C299.792 236.684 300.13 238.036 300.375 238.547C294.334 238.547 297.32 239.581 294.797 233.375C293.354 229.826 292.85 227.876 293.625 224.547C290.943 225.966 291.251 228.712 292.023 231.399C292.439 232.849 292.672 233.671 293.204 234.968C293.691 236.155 293.895 237.796 294.375 238.797Z" fill="#D3A54B"/>
<path fill-rule="evenodd" clip-rule="evenodd" d="M201.879 263.546H202.129L201.92 263.837L201.879 263.546ZM206.129 259.546H206.379L206.17 259.837L206.129 259.546ZM201.879 263.546C200.55 262.572 200.965 260.472 202.055 259.472C203.116 258.498 205.229 258.318 206.129 259.546C204.751 259.225 203.541 258.962 202.554 259.971C201.567 260.979 201.522 262.015 201.879 263.546ZM200.129 261.546C200.129 267.293 208.128 266.501 208.128 261.796C208.128 256.573 200.129 256.14 200.129 261.546Z" fill="#D3A54B"/>
<path fill-rule="evenodd" clip-rule="evenodd" d="M397.871 259.546H398.121L397.913 259.837L397.871 259.546ZM397.371 259.296C395.537 259.296 394.985 259.144 394.044 260.219C393.207 261.175 393.323 262.265 393.621 263.546C392.5 262.724 392.189 259.612 394.924 258.828C395.965 258.53 395.803 258.796 397.121 258.796L397.371 259.296ZM391.871 261.046V262.296C391.871 264.289 394.143 265.795 396.002 265.639C400.704 265.245 401.274 258.634 396.225 257.673C394.301 257.308 391.871 259.141 391.871 261.046Z" fill="#D3A54B"/>
<path fill-rule="evenodd" clip-rule="evenodd" d="M477.868 375.792C478.203 376.045 477.342 376.042 478.618 376.042V375.792H477.868Z" fill="#D3A54B"/>
<path fill-rule="evenodd" clip-rule="evenodd" d="M293.375 245.796H293.125L293.334 246.088L293.375 245.796Z" fill="#D3A54B"/>
<path fill-rule="evenodd" clip-rule="evenodd" d="M285.375 269.296V269.546L285.667 269.337L285.375 269.296Z" fill="#D3A54B"/>
<path fill-rule="evenodd" clip-rule="evenodd" d="M310.401 354.415C311.379 352.42 305.439 351.223 300.615 355.598L298.921 357.217C297.657 358.556 296.22 361.126 295.552 362.778C293.11 368.808 295.575 373.269 297.049 372.322C297.59 371.974 298.951 370.731 299.403 370.214C300.718 368.712 302.087 367.094 303.324 365.206C305.439 361.977 304.835 361.928 305.98 358.933C306.191 358.38 306.445 357.879 306.736 357.458C307.348 356.57 308.104 355.914 309.113 355.375C309.596 355.117 310.185 354.855 310.401 354.415Z" fill="#D3A54B"/>
<path fill-rule="evenodd" clip-rule="evenodd" d="M313.064 361.652C313.183 360.333 313.12 358.963 312.839 357.713C312.62 356.744 312.213 354.888 310.941 355.645C310.038 356.182 309.299 356.866 308.657 357.624C307.044 359.53 307.119 361.475 306.114 363.535C305.005 365.804 304.275 366.853 302.855 368.796L301.9 369.936C301.005 370.997 300.702 371.213 299.577 371.873C297.265 373.23 297.043 374.03 300.107 374.19C304.905 374.441 308.996 372.475 311.142 368.222C312.061 366.4 312.859 363.936 313.064 361.652Z" fill="#D3A54B"/>
<path fill-rule="evenodd" clip-rule="evenodd" d="M293.661 368.325C293.694 367.383 293.728 366.608 293.882 365.701C293.946 365.318 294.435 363.567 294.404 363.433C294.395 363.395 293.428 361.904 293.305 361.694C292.965 361.117 292.629 360.512 292.353 359.872C291.753 358.476 291.53 356.981 290.767 355.777C290.196 354.875 289.449 354.217 288.62 353.663C288.337 353.473 287.949 353.289 287.59 353.596C286.813 354.261 286.618 357.144 286.724 358.404C286.988 361.553 288.427 365.171 290.856 366.982C291.489 367.453 292.93 368.249 293.661 368.325Z" fill="#D3A54B"/>
<path fill-rule="evenodd" clip-rule="evenodd" d="M299.131 355.916C298.317 354.763 297.695 354.196 296.671 353.319C295.358 352.195 293.631 351.275 291.826 351.123C290.874 351.042 289.005 351.114 288.852 352.078C288.749 352.729 289.277 352.966 289.69 353.203C290.143 353.462 290.567 353.685 290.938 353.983C291.693 354.588 292.212 355.415 292.565 356.344C292.934 357.316 293.156 358.416 293.547 359.351C293.825 360.02 294.63 361.389 295.036 361.858L295.948 360.195C296.631 358.995 298.119 356.951 299.131 355.916Z" fill="#D3A54B"/>
<path d="M129.412 312.578C130.39 308.093 131.368 303.632 132.346 299.211C129.373 297.046 125.813 295.653 121.822 295.653C116.344 295.653 111.937 298.424 108.989 303.525C105.99 308.716 104.372 316.243 104.372 325.39C104.372 335.122 105.99 342.179 108.95 346.447C111.859 350.642 116.186 352.046 121.431 350.908C125.107 350.111 129.569 347.692 131.994 345.243C131.603 343.036 131.25 340.823 130.899 338.598C130.546 336.367 130.195 334.13 129.843 331.888C127.417 334.632 124.873 336.436 121.939 336.91C119.396 337.321 117.474 336.293 116.188 334.054C114.892 331.796 114.231 328.335 114.231 323.95C114.231 315.275 117.127 309.813 121.939 309.551C124.482 309.412 127.26 310.666 129.412 312.578ZM167.403 318.427C167.403 310.761 165.543 305.153 162.591 301.401C159.596 297.594 155.47 295.653 150.775 295.653C146.08 295.653 141.829 298.074 138.841 302.587C135.804 307.174 133.99 313.877 133.99 322.056C133.99 330.814 135.768 337.069 138.763 340.828C141.715 344.534 145.923 345.738 150.618 344.8C155.313 343.862 159.477 340.748 162.512 336.148C165.502 331.619 167.403 325.573 167.403 318.427ZM157.504 319.654C157.504 323.301 156.914 326.498 155.822 328.86C154.723 331.237 153.044 332.805 150.775 333.151C148.506 333.496 146.742 332.391 145.61 330.194C144.473 327.988 143.889 324.688 143.889 320.716C143.889 316.863 144.434 313.545 145.532 311.174C146.625 308.812 148.31 307.398 150.618 307.291C152.887 307.186 154.605 308.42 155.744 310.601C156.874 312.769 157.504 315.895 157.504 319.654ZM172.059 296.686C172.059 303.85 172.059 311.009 172.059 318.167C172.059 325.325 172.059 332.49 172.059 339.648C175.268 339.093 178.476 338.533 181.723 337.972C181.723 335.541 181.723 333.104 181.723 330.666C181.723 328.235 181.723 325.798 181.723 323.36C185.401 322.959 189.079 322.575 192.796 322.186C192.796 318.893 192.796 315.6 192.796 312.313C189.079 312.555 185.401 312.797 181.723 313.044C181.723 311.062 181.723 309.079 181.723 307.096C186.418 306.889 191.152 306.683 195.886 306.482C195.886 303.189 195.886 299.89 195.886 296.591C187.944 296.627 180.002 296.656 172.059 296.686ZM200.19 296.579C200.19 302.994 200.19 309.409 200.19 315.824C200.19 322.233 200.19 328.648 200.19 335.063C203.399 334.597 206.646 334.119 209.894 333.688C209.894 331.498 209.894 329.309 209.894 327.125C209.894 324.936 209.894 322.747 209.894 320.551C213.571 320.244 217.249 319.926 220.966 319.63C220.966 316.662 220.966 313.682 220.966 310.708C217.249 310.89 213.571 311.091 209.894 311.286C209.894 309.504 209.894 307.721 209.894 305.939C214.589 305.774 219.323 305.609 224.057 305.461C224.057 302.481 224.057 299.495 224.057 296.509C216.075 296.526 208.133 296.55 200.19 296.579ZM228.361 331.433C236.46 330.619 244.559 329.893 252.697 329.25C252.697 326.576 252.697 323.897 252.697 321.218C247.767 321.519 242.837 321.814 237.947 322.15C237.947 320.634 237.947 319.105 237.947 317.583C241.82 317.353 245.693 317.158 249.606 316.957C249.606 314.266 249.606 311.569 249.606 308.872C245.693 308.996 241.82 309.114 237.947 309.256C237.947 307.769 237.947 306.287 237.947 304.794C242.837 304.676 247.767 304.576 252.697 304.476C252.697 301.796 252.697 299.123 252.697 296.444C244.559 296.456 236.46 296.473 228.361 296.497C228.361 302.322 228.361 308.146 228.361 313.965C228.361 319.79 228.361 325.615 228.361 331.433ZM257.666 328.937C265.765 328.465 273.864 328.111 282.002 327.863C282.002 325.302 282.002 322.735 282.002 320.168C277.072 320.262 272.142 320.409 267.252 320.575C267.252 319.141 267.252 317.707 267.252 316.273C271.125 316.166 274.999 316.06 278.911 315.989C278.911 313.416 278.911 310.843 278.911 308.27C274.999 308.311 271.125 308.382 267.252 308.447C267.252 307.049 267.252 305.65 267.252 304.251C272.142 304.192 277.072 304.145 282.002 304.11C282.002 301.549 282.002 298.976 282.002 296.408C273.864 296.414 265.765 296.426 257.666 296.438C257.666 301.855 257.666 307.273 257.666 312.69C257.666 318.102 257.666 323.52 257.666 328.937ZM306.025 309.657H305.986C305.986 307.45 305.986 305.243 305.986 303.036C305.986 300.829 305.986 298.616 305.986 296.408C302.7 296.403 299.413 296.403 296.126 296.408C296.126 301.613 296.126 306.824 296.126 312.029C296.126 317.235 296.126 322.44 296.126 327.645C299.413 327.615 302.7 327.627 305.986 327.656C305.986 325.461 305.986 323.254 305.986 321.059C305.986 318.863 305.986 316.656 305.986 314.455H306.025C307.473 316.662 308.919 318.876 310.368 321.088C311.814 323.296 313.263 325.526 314.75 327.768C318.585 327.857 322.419 327.958 326.292 328.075C324.336 325.29 322.384 322.537 320.463 319.79C318.55 317.055 316.628 314.331 314.711 311.61C316.55 309.096 318.47 306.573 320.306 304.045C322.148 301.509 324.062 298.964 325.94 296.414C322.262 296.414 318.585 296.408 314.907 296.408C313.42 298.621 311.894 300.834 310.446 303.042C308.999 305.249 307.473 307.45 306.025 309.657ZM358.845 313.027C358.845 307.178 357.013 302.798 354.032 299.914C351.066 297.044 346.912 295.653 342.217 295.653C337.521 295.653 333.3 297.263 330.283 300.138C327.275 303.005 325.431 307.143 325.431 312.301C325.431 317.819 327.237 321.997 330.205 324.859C333.184 327.733 337.365 329.297 342.06 329.562C346.755 329.828 350.952 328.458 353.954 325.638C356.977 322.799 358.845 318.486 358.845 313.027ZM348.946 312.885C348.946 315.505 348.362 317.726 347.264 319.264C346.171 320.795 344.485 321.652 342.217 321.554C339.947 321.457 338.19 320.448 337.052 318.816C335.921 317.196 335.33 314.945 335.33 312.301C335.33 309.745 335.878 307.58 336.974 306.057C338.069 304.535 339.752 303.652 342.06 303.685C344.329 303.717 346.053 304.663 347.185 306.276C348.323 307.896 348.946 310.188 348.946 312.885ZM363.462 296.467C363.462 302.097 363.462 307.727 363.462 313.351C363.462 318.975 363.462 324.606 363.462 330.235C366.67 330.501 369.917 330.778 373.165 331.056C373.165 329.02 373.165 326.978 373.165 324.942C373.165 322.906 373.165 320.87 373.165 318.828C376.842 319.064 380.521 319.306 384.237 319.548C384.237 316.585 384.237 313.623 384.237 310.654C380.521 310.501 376.842 310.348 373.165 310.206C373.165 308.542 373.165 306.883 373.165 305.225C377.86 305.349 382.594 305.479 387.328 305.609C387.328 302.581 387.328 299.554 387.328 296.52C379.347 296.497 371.404 296.479 363.462 296.467ZM391.632 296.532C391.632 302.605 391.632 308.677 391.632 314.75C391.632 320.823 391.632 326.895 391.632 332.968C394.84 333.34 398.049 333.7 401.296 334.113C401.296 331.906 401.296 329.687 401.296 327.474C401.296 325.266 401.296 323.047 401.296 320.834C404.974 321.135 408.691 321.448 412.408 321.779C412.408 318.539 412.408 315.299 412.408 312.053C408.691 311.847 404.974 311.652 401.296 311.463C401.296 309.657 401.296 307.857 401.296 306.051C406.03 306.217 410.764 306.382 415.499 306.565C415.499 303.242 415.499 299.925 415.499 296.603C407.517 296.573 399.574 296.55 391.632 296.532ZM419.802 336.609C427.902 337.825 436 339.099 444.139 340.474C444.139 336.91 444.139 333.334 444.139 329.763C439.209 329.126 434.279 328.5 429.349 327.916C429.349 326.063 429.349 324.204 429.349 322.351C433.223 322.729 437.135 323.13 441.048 323.549C441.048 320.026 441.048 316.491 441.048 312.962C437.135 312.696 433.223 312.448 429.349 312.212C429.349 310.407 429.349 308.595 429.349 306.783C434.279 306.984 439.209 307.202 444.139 307.42C444.139 303.85 444.139 300.28 444.139 296.703C436 296.674 427.902 296.644 419.802 296.615C419.802 303.283 419.802 309.952 419.802 316.615C419.802 323.278 419.802 329.946 419.802 336.609ZM449.147 341.348C452.394 341.944 455.681 342.534 458.967 343.136C458.967 335.411 458.967 327.68 458.967 319.955C458.967 312.23 458.967 304.499 458.967 296.768C455.681 296.757 452.394 296.739 449.147 296.727C449.147 304.163 449.147 311.604 449.147 319.04C449.147 326.476 449.147 333.912 449.147 341.348ZM486.472 296.898C486.472 301.808 486.472 306.718 486.472 311.622C486.472 316.532 486.472 321.436 486.472 326.34C484.595 321.236 482.766 316.203 480.917 311.268C479.089 306.39 477.239 301.584 475.4 296.845C471.839 296.827 468.318 296.81 464.797 296.798C464.797 304.712 464.797 312.625 464.797 320.533C464.797 328.447 464.797 336.361 464.797 344.269C467.849 344.865 470.901 345.467 473.952 346.087C473.952 341.442 473.952 336.786 473.952 332.141C473.952 327.497 473.952 322.841 473.952 318.19C475.791 323.13 477.722 328.142 479.547 333.221C481.399 338.375 483.303 343.62 485.181 348.937C488.664 349.716 492.146 350.495 495.628 351.28C495.628 342.227 495.628 333.168 495.628 324.116C495.628 315.069 495.628 306.004 495.628 296.945C492.576 296.933 489.524 296.916 486.472 296.898Z" fill="white"/>
<path d="M304.614 191.629L304.418 198.568L303.151 198.532L300.255 194.08L300.204 194.078L300.081 198.446L298.614 198.404L298.81 191.465L300.097 191.501L302.97 195.95L303.031 195.952L303.154 191.588L304.614 191.629Z" fill="white"/>
<path d="M308.304 198.725L309.159 191.836L310.616 192.017L310.239 195.054L310.329 195.065L313.186 192.336L314.932 192.553L311.992 195.32L314.106 199.446L312.364 199.229L310.828 196.162L310.003 196.948L309.76 198.906L308.304 198.725Z" fill="white"/>
<path d="M294.127 191.678L294.653 198.6L293.19 198.712L292.663 191.79L294.127 191.678Z" fill="white"/>
<path d="M283.967 199.685L283.111 192.796L285.829 192.459C286.35 192.394 286.805 192.432 287.196 192.572C287.589 192.71 287.903 192.937 288.138 193.251C288.375 193.563 288.521 193.947 288.578 194.402C288.635 194.86 288.585 195.266 288.429 195.62C288.272 195.972 288.017 196.258 287.664 196.48C287.314 196.701 286.874 196.844 286.345 196.91L284.525 197.136L284.379 195.966L285.964 195.769C286.242 195.734 286.468 195.668 286.643 195.568C286.817 195.469 286.94 195.338 287.01 195.174C287.083 195.01 287.106 194.815 287.078 194.589C287.049 194.36 286.979 194.173 286.868 194.027C286.759 193.881 286.606 193.78 286.41 193.722C286.216 193.662 285.978 193.649 285.698 193.684L284.716 193.806L285.424 199.504L283.967 199.685ZM287.298 196.088L289.4 199.01L287.792 199.21L285.727 196.283L287.298 196.088Z" fill="white"/>
<path d="M320.071 200.431L321.639 193.668L323.069 194L322.377 196.981L322.467 197.002L325.591 194.584L327.305 194.982L324.094 197.428L325.767 201.751L324.057 201.355L322.849 198.145L321.947 198.84L321.501 200.762L320.071 200.431Z" fill="white"/>
<path d="M277.063 201.093L274.665 201.646L273.104 194.882L275.522 194.324C276.202 194.167 276.819 194.167 277.373 194.325C277.926 194.48 278.393 194.779 278.773 195.223C279.156 195.665 279.428 196.238 279.591 196.94C279.753 197.645 279.76 198.281 279.61 198.849C279.463 199.417 279.173 199.893 278.74 200.278C278.309 200.663 277.75 200.934 277.063 201.093ZM275.813 200.091L276.721 199.881C277.144 199.784 277.482 199.627 277.736 199.41C277.992 199.191 278.155 198.907 278.228 198.556C278.301 198.203 278.28 197.774 278.164 197.27C278.048 196.77 277.88 196.378 277.66 196.095C277.441 195.812 277.17 195.629 276.847 195.545C276.524 195.462 276.151 195.469 275.729 195.567L274.817 195.777L275.813 200.091Z" fill="white"/>
<path d="M336.449 201.463C336.207 202.18 335.866 202.745 335.424 203.157C334.985 203.569 334.487 203.83 333.931 203.938C333.378 204.045 332.811 204.001 332.231 203.806C331.646 203.609 331.166 203.3 330.79 202.878C330.415 202.456 330.177 201.948 330.076 201.354C329.976 200.759 330.046 200.105 330.287 199.389C330.528 198.672 330.868 198.107 331.308 197.694C331.747 197.282 332.243 197.022 332.797 196.915C333.351 196.806 333.92 196.85 334.505 197.046C335.085 197.242 335.563 197.55 335.939 197.972C336.317 198.393 336.556 198.9 336.657 199.494C336.759 200.089 336.69 200.745 336.449 201.463ZM335.038 200.988C335.195 200.523 335.257 200.108 335.225 199.742C335.195 199.377 335.083 199.07 334.888 198.82C334.693 198.571 334.427 198.39 334.091 198.277C333.755 198.164 333.433 198.147 333.127 198.228C332.821 198.309 332.545 198.485 332.298 198.757C332.054 199.03 331.853 199.399 331.697 199.864C331.541 200.329 331.477 200.744 331.507 201.109C331.539 201.475 331.652 201.782 331.847 202.032C332.043 202.281 332.308 202.462 332.645 202.575C332.981 202.688 333.302 202.705 333.608 202.624C333.914 202.543 334.189 202.367 334.434 202.094C334.68 201.821 334.882 201.453 335.038 200.988Z" fill="white"/>
<path d="M264.562 204.819L262.301 198.256L263.689 197.778L265.555 203.197L268.369 202.228L268.763 203.372L264.562 204.819Z" fill="white"/>
<path d="M338.713 206.075L341.562 199.745L345.753 201.631L345.257 202.734L342.404 201.45L341.725 202.959L344.3 204.118L343.803 205.221L341.228 204.062L340.052 206.677L338.713 206.075Z" fill="white"/>
<path d="M256.698 200.53L258.035 199.925L259.893 204.033C260.102 204.494 260.174 204.947 260.11 205.393C260.048 205.837 259.865 206.245 259.559 206.617C259.252 206.986 258.837 207.289 258.314 207.525C257.789 207.763 257.287 207.875 256.807 207.861C256.326 207.846 255.899 207.714 255.524 207.467C255.149 207.22 254.858 206.866 254.649 206.404L252.791 202.297L254.129 201.692L255.935 205.685C256.044 205.926 256.193 206.117 256.383 206.256C256.574 206.395 256.791 206.475 257.033 206.494C257.275 206.514 257.525 206.465 257.782 206.349C258.042 206.231 258.243 206.076 258.386 205.882C258.531 205.688 258.614 205.473 258.634 205.238C258.656 205.002 258.613 204.764 258.504 204.523L256.698 200.53Z" fill="white"/>
<path d="M346.122 209.532L349.27 203.345L353.366 205.43L352.817 206.508L350.029 205.089L349.279 206.564L351.795 207.844L351.246 208.922L348.73 207.642L347.43 210.198L346.122 209.532Z" fill="white"/>
<path d="M248.434 212.52L244.958 206.512L248.936 204.21L249.542 205.257L246.834 206.824L247.663 208.256L250.107 206.842L250.713 207.889L248.269 209.303L249.705 211.785L248.434 212.52Z" fill="white"/>
<path d="M353.277 213.543L357.037 207.707L360.969 210.241L360.313 211.258L357.615 209.52L356.719 210.91L359.215 212.518L358.56 213.535L356.064 211.927L355.166 213.32L357.876 215.066L357.221 216.083L353.277 213.543Z" fill="white"/>
<path d="M241.356 208.738L245.094 214.588L243.857 215.378L240.119 209.529L241.356 208.738Z" fill="white"/>
<path d="M365.991 213.912L361.718 219.383L360.562 218.48L364.834 213.009L365.991 213.912Z" fill="white"/>
<path d="M233.321 215.994L232.572 215.043L237.053 211.518L237.801 212.469L236.131 213.783L239.675 218.287L238.535 219.184L234.991 214.68L233.321 215.994Z" fill="white"/>
<path d="M373.746 220.375L369.197 225.619L368.24 224.789L368.821 219.509L368.783 219.476L365.92 222.776L364.811 221.814L369.36 216.571L370.333 217.415L369.736 222.676L369.782 222.716L372.643 219.418L373.746 220.375Z" fill="white"/>
<path d="M232.979 219.217L233.727 220.085L231.33 222.152L230.581 221.285L232.979 219.217Z" fill="white"/>
<path d="M372.784 229.218L371.697 228.081L378.371 225.016L379.678 226.383L376.314 232.91L375.227 231.773L377.896 226.815L377.859 226.776L372.784 229.218ZM374.688 227.261L377.255 229.946L376.427 230.738L373.86 228.053L374.688 227.261Z" fill="white"/>
<path d="M225.738 230.763L219.348 227.402L220.456 226.243L224.736 228.745L224.776 228.703L222.165 224.455L223.114 223.462L227.481 225.888L227.523 225.844L224.823 221.674L225.931 220.515L229.577 226.747L228.588 227.781L224.394 225.6L224.357 225.64L226.727 229.729L225.738 230.763Z" fill="white"/>
<path d="M382.558 231.48L383.509 230.732L387.034 235.212L386.083 235.96L384.769 234.29L380.265 237.834L379.368 236.694L383.872 233.15L382.558 231.48Z" fill="white"/>
<path d="M219.064 238.69L213.593 234.417L216.472 230.731L217.425 231.476L215.45 234.006L216.753 235.024L218.581 232.684L219.535 233.428L217.707 235.768L219.013 236.789L220.997 234.248L221.951 234.993L219.064 238.69Z" fill="white"/>
<path d="M383.36 241.882L389.21 238.145L391.729 242.087L390.709 242.738L388.981 240.033L387.587 240.924L389.186 243.426L388.166 244.077L386.567 241.575L385.17 242.468L386.906 245.184L385.886 245.836L383.36 241.882Z" fill="white"/>
<path d="M213.787 246.344L207.952 242.584L209.435 240.282C209.719 239.841 210.04 239.516 210.398 239.306C210.756 239.093 211.131 238.997 211.523 239.019C211.914 239.037 212.303 239.17 212.689 239.419C213.076 239.668 213.356 239.967 213.527 240.314C213.697 240.66 213.753 241.039 213.697 241.452C213.642 241.862 213.47 242.292 213.181 242.74L212.188 244.282L211.197 243.643L212.061 242.301C212.213 242.065 212.307 241.849 212.343 241.651C212.379 241.454 212.356 241.276 212.276 241.116C212.197 240.955 212.062 240.813 211.87 240.689C211.676 240.565 211.488 240.498 211.304 240.49C211.123 240.481 210.947 240.533 210.777 240.646C210.606 240.757 210.444 240.931 210.291 241.168L209.755 242L214.582 245.11L213.787 246.344ZM213.162 241.482L216.752 241.742L215.874 243.104L212.304 242.812L213.162 241.482Z" fill="white"/>
<path d="M389.251 251.485L388.14 249.29L394.333 246.154L395.454 248.368C395.769 248.991 395.917 249.59 395.896 250.165C395.878 250.739 395.699 251.264 395.36 251.74C395.022 252.217 394.531 252.619 393.888 252.945C393.243 253.271 392.627 253.43 392.04 253.421C391.453 253.414 390.921 253.246 390.444 252.918C389.967 252.592 389.57 252.114 389.251 251.485ZM389.925 250.031L390.346 250.863C390.542 251.25 390.775 251.541 391.046 251.736C391.32 251.931 391.635 252.022 391.993 252.008C392.354 251.995 392.765 251.872 393.227 251.638C393.684 251.407 394.024 251.15 394.246 250.868C394.469 250.588 394.582 250.281 394.586 249.947C394.589 249.614 394.493 249.253 394.297 248.866L393.874 248.032L389.925 250.031Z" fill="white"/>
<path d="M209.238 254.456L203.051 251.308L204.312 248.831C204.543 248.376 204.804 248.031 205.094 247.795C205.383 247.56 205.687 247.427 206.004 247.395C206.32 247.363 206.633 247.426 206.943 247.584C207.184 247.707 207.372 247.863 207.506 248.053C207.638 248.242 207.72 248.451 207.751 248.68C207.78 248.905 207.765 249.138 207.703 249.378L207.764 249.409C207.894 249.178 208.072 248.992 208.3 248.849C208.528 248.704 208.786 248.623 209.073 248.607C209.358 248.59 209.653 248.659 209.957 248.813C210.285 248.98 210.536 249.211 210.711 249.505C210.885 249.797 210.966 250.138 210.954 250.53C210.942 250.922 210.818 251.35 210.583 251.813L209.238 254.456ZM208.834 252.604L209.377 251.538C209.562 251.173 209.628 250.872 209.574 250.634C209.518 250.395 209.373 250.216 209.14 250.098C208.968 250.01 208.796 249.975 208.624 249.991C208.451 250.007 208.288 250.072 208.136 250.187C207.984 250.301 207.855 250.462 207.749 250.671L207.191 251.768L208.834 252.604ZM206.306 251.317L206.799 250.348C206.89 250.169 206.94 249.994 206.948 249.823C206.955 249.649 206.921 249.492 206.845 249.352C206.771 249.21 206.652 249.098 206.489 249.015C206.265 248.901 206.044 248.889 205.826 248.978C205.61 249.066 205.427 249.254 205.28 249.544L204.774 250.538L206.306 251.317Z" fill="white"/>
<path d="M386.423 361.833C380.052 370.406 372.44 377.984 363.838 384.316C315.946 419.573 248.54 409.33 213.284 361.438" stroke="#D3A54B" stroke-width="1.9199" stroke-linecap="round" stroke-linejoin="round" stroke-dasharray="1.92 5.76"/>
</svg>
